<?xml version="1.0" encoding="utf-8"?>
<!-- Generator: Adobe Illustrator 21.1.0, SVG Export Plug-In . SVG Version: 6.00 Build 0)  -->
<svg version="1.1"
	 id="svg8" inkscape:version="0.92.2 5c3e80d, 2017-08-06" sodipodi:docname="CameraButtonStand.svg" xmlns:cc="http://creativecommons.org/ns#" xmlns:dc="http://purl.org/dc/elements/1.1/" xmlns:inkscape="http://www.inkscape.org/namespaces/inkscape" xmlns:rdf="http://www.w3.org/1999/02/22-rdf-syntax-ns#" xmlns:sodipodi="http://sodipodi.sourceforge.net/DTD/sodipodi-0.dtd" xmlns:svg="http://www.w3.org/2000/svg"
	 xmlns="http://www.w3.org/2000/svg" xmlns:xlink="http://www.w3.org/1999/xlink" x="0px" y="0px" viewBox="0 0 595.3 841.9"
	 style="enable-background:new 0 0 595.3 841.9;" xml:space="preserve">
<style type="text/css">
	.st0{fill:none;stroke:#000000;stroke-width:0.3528;stroke-linecap:round;stroke-linejoin:round;}
	.st1{fill:none;stroke:#000000;stroke-width:1.3333;stroke-linecap:round;stroke-linejoin:round;}
	.st2{fill:none;stroke:#0000FF;stroke-width:0.3528;}
</style>
<sodipodi:namedview  bordercolor="#666666" borderopacity="1.0" id="base" inkscape:current-layer="layer1" inkscape:cx="241.00314" inkscape:cy="398.03499" inkscape:document-units="mm" inkscape:guide-bbox="true" inkscape:object-paths="false" inkscape:pageopacity="0.0" inkscape:pageshadow="2" inkscape:snap-bbox="true" inkscape:snap-bbox-midpoints="true" inkscape:snap-intersection-paths="true" inkscape:snap-smooth-nodes="true" inkscape:window-height="756" inkscape:window-maximized="1" inkscape:window-width="1276" inkscape:window-x="4" inkscape:window-y="22" inkscape:zoom="1.4133192" pagecolor="#ffffff" showgrid="true" showguides="true">
	<inkscape:grid  empspacing="4" id="grid4508" spacingx="1" spacingy="1" type="xygrid" units="mm"></inkscape:grid>
	<sodipodi:guide  id="guide4543" inkscape:locked="false" orientation="0,1" position="52,292"></sodipodi:guide>
	<sodipodi:guide  id="guide4545" inkscape:locked="false" orientation="0,1" position="28,244"></sodipodi:guide>
	<sodipodi:guide  id="guide4547" inkscape:locked="false" orientation="0,1" position="230,209"></sodipodi:guide>
	<sodipodi:guide  id="guide4549" inkscape:locked="false" orientation="1,0" position="222.06164,285.75001"></sodipodi:guide>
	<sodipodi:guide  id="guide4553" inkscape:locked="false" orientation="1,0" position="218.06164,264.75538"></sodipodi:guide>
	<sodipodi:guide  id="guide4594" inkscape:locked="false" orientation="1,0" position="178,217"></sodipodi:guide>
	<sodipodi:guide  id="guide4626" inkscape:locked="false" orientation="0,1" position="126,225"></sodipodi:guide>
	<sodipodi:guide  id="guide4630" inkscape:locked="false" orientation="1,0" position="202.06164,164.96909"></sodipodi:guide>
	<sodipodi:guide  id="guide4724" inkscape:locked="false" orientation="1,0" position="8,240"></sodipodi:guide>
	<sodipodi:guide  id="guide4771" inkscape:locked="false" orientation="0,1" position="32.8119,181.80122"></sodipodi:guide>
	<sodipodi:guide  id="guide4775" inkscape:locked="false" orientation="0,1" position="143,197.00001"></sodipodi:guide>
	<sodipodi:guide  id="guide4796" inkscape:locked="false" orientation="1,0" position="265,199"></sodipodi:guide>
	<sodipodi:guide  id="guide4808" inkscape:locked="false" orientation="1,0" position="295.99999,201.00002"></sodipodi:guide>
	<sodipodi:guide  id="guide4554" inkscape:locked="false" orientation="1,0" position="47.999999,240.00001"></sodipodi:guide>
</sodipodi:namedview>
<g id="layer1" inkscape:groupmode="layer" inkscape:label="Layer 1">
	<g id="g887" transform="rotate(-90,113.5,117.5)">
		<path id="rect4504" inkscape:connector-curvature="0" sodipodi:nodetypes="ccccccccccccccccc" class="st0" d="M-395.5,26.7l0-11.3
			h150.2v11.3l28.3,0l40.4,0l98.5,0V15.3l22.7,0v238.1v11.3H-78v-11.3l-167.2,0v11.3h-150.2L-395.5,26.7z"/>
		<path id="rect4510" inkscape:connector-curvature="0" sodipodi:nodetypes="ccccccccccccccc" class="st0" d="M-89.3,83.4l0,113.4
			H-78l0-113.4H-89.3z M-78,196.8l0,45.4h11.3l0-45.4H-78z M-89.3,196.8h-11.3l0,45.4h11.3L-89.3,196.8z"/>
		
			<rect id="rect4516" x="-95" y="55" transform="matrix(-2.535182e-06 -1 1 -2.535182e-06 -133.0002 -11.614)" class="st0" width="45.4" height="11.3"/>
		
			<rect id="rect4520" x="-117.7" y="55" transform="matrix(-2.535182e-06 -1 1 -2.535182e-06 -155.6774 -34.2912)" class="st0" width="45.4" height="11.3"/>
	</g>
	<g id="g4749" transform="rotate(90,164.65615,-64.656146)">
		<path id="rect4506" inkscape:connector-curvature="0" sodipodi:nodetypes="ccccccccccccccccccccc" class="st1" d="M303-160.8v11.3
			h-59.5v113.4V77.3H303v11.3h42.5V77.3l11.3,0V66V20.6h11.3v-56.7v-56.7h-11.3v-45.4v-11.3l-11.3,0v-11.3H303z"/>
		
			<rect id="rect4578" x="294.5" y="-53.1" transform="matrix(2.535182e-06 1 -1 2.535182e-06 275.4535 -347.5802)" class="st0" width="34" height="34"/>
	</g>
	<g id="g4759" transform="rotate(-90,202.24272,206.24278)">
		<path id="path4564" inkscape:connector-curvature="0" sodipodi:nodetypes="cccccccccccccccccccccc" class="st1" d="M144.9,15.3
			v11.3h-11.3v113.4v113.4h11.3v11.3h42.5v-11.3l59.5,0v-11.3h11.3v-45.4h-11.3V83.4h11.3V38h-11.3V26.7l-59.5,0V15.3H144.9z"/>
		<g id="g4660" transform="translate(133.42376,-162.88447)">
			
				<rect id="rect4596" x="66" y="273.9" transform="matrix(-2.535182e-06 -1 1 -2.535182e-06 -215.6817 351.9457)" class="st0" width="4.3" height="19.8"/>
			
				<rect id="rect4598" x="66" y="312.2" transform="matrix(-2.535182e-06 -1 1 -2.535182e-06 -253.9494 390.2135)" class="st0" width="4.3" height="19.8"/>
		</g>
	</g>
	<g id="g881" transform="rotate(-180,159.06164,83)">
		<path id="path4562" inkscape:connector-curvature="0" sodipodi:nodetypes="ccccccccccccccccccccccccccccc" class="st0" d="
			M34.5-100.5h11.3l0,45.4H34.5l0,11.3h11.3v167.2H34.7v19.8v8.5H23.1L-178.3-21.1v-34v-102v-102v-34L23.1-466.1h11.5v8.5v19.8h11.2
			v167.2H34.5l0,11.3h11.3l0,45.4H34.5v56.7V-100.5z"/>
		<path id="path4570" inkscape:connector-curvature="0" class="st0" d="M-102.1-157.1c0,13.3-10.8,24.1-24.1,24.1c0,0,0,0,0,0
			c-13.3,0-24.1-10.8-24.1-24.1c0-13.3,10.8-24.1,24.1-24.1C-112.9-181.2-102.1-170.5-102.1-157.1
			C-102.1-157.1-102.1-157.1-102.1-157.1z"/>
		<path id="path4584" inkscape:connector-curvature="0" class="st0" d="M-0.6-157.1c0,5.7-4.6,10.3-10.3,10.3s-10.3-4.6-10.3-10.3
			c0-5.7,4.6-10.3,10.3-10.3S-0.6-162.8-0.6-157.1z"/>
		<path id="path4765" inkscape:connector-curvature="0" class="st2" d="M-178.1-43.8H34.5"/>
		<path id="rect4790" inkscape:connector-curvature="0" class="st0" d="M-19.5-43.8H23v11.3h-42.5V-43.8z"/>
		<path id="rect4792" inkscape:connector-curvature="0" class="st0" d="M-67.7-32.4h42.5v11.3h-42.5V-32.4z"/>
		<path id="path4821" inkscape:connector-curvature="0" class="st2" d="M-178.3-270.5H34.3"/>
		<path id="rect4823" inkscape:connector-curvature="0" class="st0" d="M-19.5-270.5H23v-11.3h-42.5V-270.5z"/>
		<path id="rect4825" inkscape:connector-curvature="0" class="st0" d="M-67.7-281.9h42.5v-11.3h-42.5V-281.9z"/>
	</g>
</g>
<g>
	<path d="M370.3,223.1c-0.4,1.1-0.6,2.2-0.8,3.4c-0.3,1-0.5,2.1-0.6,3.4c-0.1,1.3-0.2,2.6-0.2,3.9c0,2.3,0.8,3.5,2.5,3.5
		c0.6,0,1.3-0.4,2-1c0.7-0.7,1.4-1.6,2.2-2.7c0.8-1.1,1.7-2.2,2.7-3.5c1-1.2,2.1-2.4,3.4-3.4c1.3-1.1,2.8-2,4.4-2.7
		c1.6-0.7,3.5-1,5.6-1c2.3,0,4.4,0.4,6.2,1.3c1.8,0.8,3.3,2,4.5,3.5s2.1,3.3,2.7,5.3c0.6,2,0.9,4.2,0.9,6.5c0,1.2-0.1,2.4-0.2,3.6
		s-0.2,2.3-0.3,3.2c-0.2,1.1-0.3,2.2-0.5,3.2h-14c0-0.4,0.1-0.9,0.2-1.3c0-0.4,0.1-0.9,0.2-1.4c0-0.5,0.1-1,0.1-1.6
		c0-0.3,0-0.7,0-1.1c0-0.4-0.1-0.9-0.2-1.3c-0.1-0.4-0.3-0.8-0.5-1c-0.2-0.3-0.6-0.5-1-0.5c-0.4,0-0.9,0.3-1.5,1
		c-0.6,0.7-1.3,1.5-2.1,2.5c-0.8,1-1.7,2-2.8,3.2s-2.2,2.2-3.6,3.2c-1.4,1-2.9,1.8-4.6,2.5c-1.7,0.7-3.6,1-5.7,1
		c-2.2,0-4.3-0.4-6.2-1c-1.9-0.7-3.6-1.8-5-3.3c-1.4-1.5-2.6-3.4-3.4-5.7c-0.8-2.3-1.2-5-1.2-8.2c0-1.9,0.1-3.7,0.3-5.3
		c0.2-1.6,0.4-3.1,0.6-4.3c0.3-1.5,0.5-2.8,0.9-4H370.3z M361.3,229.4c-0.2,0.7-0.3,1.4-0.4,2.2c-0.1,0.7-0.2,1.4-0.3,2.2
		s-0.1,1.6-0.1,2.4c0,1.4,0.2,2.8,0.5,4.1c0.3,1.3,0.9,2.5,1.6,3.6s1.7,1.9,2.9,2.5c1.2,0.6,2.6,0.9,4.3,0.9c1.4,0,2.8-0.4,4.1-1.1
		c1.3-0.7,2.5-1.6,3.8-2.8s2.3-2.3,3.5-3.6c1.1-1.3,2.2-2.5,3.3-3.6s2.2-2.1,3.4-2.8s2.3-1.1,3.5-1.1c1.8,0,3.2,0.6,4.2,1.7
		c1,1.1,1.5,3,1.5,5.5c0,0.4,0,0.8,0,1.2c0,0.4-0.1,0.8-0.1,1.2c-0.1,0.4-0.1,0.8-0.1,1.2h2c0-0.4,0-0.7,0.1-1.1
		c0-0.4,0.1-0.7,0.1-1.2c0-0.4,0-0.9,0-1.3c0-2.7-0.6-4.9-1.8-6.7c-1.2-1.8-3.1-2.6-5.7-2.6c-1.4,0-2.7,0.4-3.9,1.1
		c-1.2,0.7-2.4,1.6-3.6,2.8c-1.2,1.1-2.3,2.3-3.4,3.6c-1.1,1.3-2.2,2.5-3.3,3.6s-2.3,2-3.5,2.8c-1.2,0.7-2.5,1.1-3.8,1.1
		c-2.4,0-4.2-0.8-5.5-2.4c-1.2-1.6-1.9-3.9-1.9-6.7c0-1.7,0.1-3.3,0.4-4.7c0.1-0.8,0.2-1.5,0.4-2.2H361.3z"/>
	<path d="M404.8,258.2v13.2l-19.2,13l19.2,13v13.2h-50v-16h18l-15-10.2l15-10.3h-18v-16H404.8z M360.8,267.7h34.4l-24.5,16.8
		l24.5,16.7h-34.4v2h38v-2l-24.7-16.7l24.7-16.8v-2h-38V267.7z"/>
	<path d="M404.8,315.9v17h-50v-17H404.8z M360.8,325.4h38v-2h-38V325.4z"/>
	<path d="M404.8,338.1v16.7h-36.9v13.8h-13.1v-30.5H404.8z M360.8,364.4h1.8v-16.8h36.2v-2h-38V364.4z"/>
	<path d="M404.8,371.2v29.5h-13.1v-13.5h-5.6v13.3h-12.4v-13.3h-5.8v14h-13.1v-30H404.8z M360.8,395.6h1.8v-15H379v14.2h1.8v-14.2
		H397v15h1.8v-17h-38V395.6z"/>
	<path d="M367.3,405.8v16h-12.5v-16H367.3z M360.2,417.4h1.7v-7h-1.7V417.4z M404.8,405.3v17.1l-35.2-2.5v-12L404.8,405.3z
		 M374.3,414.8h25V413h-25V414.8z"/>
</g>
</svg>
